F-Dur
MBT180MNO4T180l4cO3l8agl4fl8gab-agfl2gl4al8fel4dl8efl2gl4cP4O4l4cO3l8agl4fl8gab-agfl2gl4al8faO4l4dl8cO3bO4l2cl4cO3l8c.l16cl4fl8f.l16gl4al8g.l16fl8g.l16al4MLgl8MNgP8l8c.l16cl4fl8f.l16gl4al8g.l16fl8g.l16al4MLgl8MNgP8l8a.l16b-O4l4cO3l8a
O4cO3l4fl8gab-O4cdcO3l4b-l8agl4al8gfl4gl8fel2MLfl8MNfP8P4








