G-Dur
MBT120O3T120l4dg.l8f#agdO2bO3l2el4cP8l8el4a.l8gf#edcO2l2bP4O3l4dg.l8f#agdO2bO3l2el4cl8agl4f#aO4cO3f#l2MLal8MSaP8l8MNbal4f#.l8f#MLeMSf#MNgel2f#l4dl8c#dl4e.l8el4a.l8gl2MLf#l8MSf#P8l4MNaa.l8f#ddc#dl2bl8gef#gl4f#agel2MLdl8MSdP8l8MNb.l16a
l2gl4d.O2l8bO3l2el8cP8l8a.l16gl2f#l4edl2MLdl8MSdP8l4MNdb.l8bl4adl2gl4f#.l8f#l4e.l8d#l4eal2MLal8MSaP8l8MNb.l16al2gl4d.O2l8bO3l2el8cP8l8a.l16gl2f#l4edl2b.l4bO4d.l8dl4cO3bMLa.l8MSbO4l4MNcP8l8cO3l4b.l8gl4a.l8f#l2g.








